<svg version="1.1" xmlns="http://www.w3.org/2000/svg" viewBox="0 0 134.80270834852303 122.01560892329297" width="269.60541669704605" height="244.03121784658595">
  <!-- svg-source:excalidraw -->
  
  <defs>
    <style class="style-fonts">
      @font-face {
        font-family: "Virgil";
        src: url("https://file%2B.vscode-resource.vscode-cdn.net/Users/andychang/.vscode/extensions/pomdtr.excalidraw-editor-3.7.4/public//dist/excalidraw-assets/Virgil.woff2");
      }
      @font-face {
        font-family: "Cascadia";
        src: url("https://file%2B.vscode-resource.vscode-cdn.net/Users/andychang/.vscode/extensions/pomdtr.excalidraw-editor-3.7.4/public//dist/excalidraw-assets/Cascadia.woff2");
      }
      @font-face {
        font-family: "Assistant";
        src: url("https://file%2B.vscode-resource.vscode-cdn.net/Users/andychang/.vscode/extensions/pomdtr.excalidraw-editor-3.7.4/public//dist/excalidraw-assets/Assistant-Regular.woff2");
      }
    </style>
    
  </defs>
  <g stroke-linecap="round" transform="translate(23.57985643956681 39.8156932689439) rotate(0 10.565990378390751 29.262491874518815)"><path d="M-0.13 1.76 L21.89 0.63 L20.13 58.13 L-0.68 57.11" stroke="none" stroke-width="0" fill="#ffd43b"></path><path d="M0 0 C3.92 1.17, 10.05 -1.25, 21.13 0 M0 0 C7.42 0.57, 16.1 0.61, 21.13 0 M21.13 0 C23.13 21.62, 23.07 47.29, 21.13 58.52 M21.13 0 C22.23 22.77, 21.96 43.2, 21.13 58.52 M21.13 58.52 C15.96 58.32, 6.75 57.93, 0 58.52 M21.13 58.52 C16.1 58.46, 8.29 57.82, 0 58.52 M0 58.52 C0.59 34.49, 1.07 12.47, 0 0 M0 58.52 C-0.03 35.12, 0.17 13.31, 0 0" stroke="#1e1e1e" stroke-width="4" fill="none"></path></g><g stroke-linecap="round" transform="translate(57.423699978507784 40.07417522792349) rotate(0 10.565990378390751 29.262491874518815)"><path d="M0.76 0.73 L21.05 0.07 L22.95 57.49 L1.8 57.65" stroke="none" stroke-width="0" fill="#da77f2"></path><path d="M0 0 C4.25 0.88, 8.83 0.9, 21.13 0 M0 0 C4.24 0.9, 10.09 -0.22, 21.13 0 M21.13 0 C19.86 11.93, 19.77 23.35, 21.13 58.52 M21.13 0 C21.32 13.81, 20.79 28.92, 21.13 58.52 M21.13 58.52 C15.3 58.22, 9.73 57.96, 0 58.52 M21.13 58.52 C16.74 58.85, 11.58 58.26, 0 58.52 M0 58.52 C-0.2 45.07, -0.45 28.31, 0 0 M0 58.52 C0.39 36.11, -0.31 11.73, 0 0" stroke="#1e1e1e" stroke-width="4" fill="none"></path></g><g stroke-linecap="round" transform="translate(90.06935960742862 39.582713710599364) rotate(0 10.565990378390751 29.262491874518815)"><path d="M1.31 -1.12 L20.82 -1.75 L19.56 59.64 L0.45 58.17" stroke="none" stroke-width="0" fill="#fa5252"></path><path d="M0 0 C8.87 0.34, 15.19 -2.11, 21.13 0 M0 0 C6.43 -0.96, 10.43 0.94, 21.13 0 M21.13 0 C19.77 14.02, 21.89 26.09, 21.13 58.52 M21.13 0 C20.92 12.9, 20.74 28.32, 21.13 58.52 M21.13 58.52 C13.43 58.98, 8.2 56.69, 0 58.52 M21.13 58.52 C17.1 57.39, 11.55 57.69, 0 58.52 M0 58.52 C1.07 42.86, 1.93 22.38, 0 0 M0 58.52 C-0.48 36.15, 0.47 14.48, 0 0" stroke="#1e1e1e" stroke-width="4" fill="none"></path></g><g stroke-linecap="round"><g transform="translate(10 49.79880691221422) rotate(0 57.364134960673624 -19.89940345610711)" fill-rule="evenodd"><path d="M-1.2 0.75 L114.54 1.54 L116.72 -21.17 L59.79 -39.4 L1.54 -24.21 L0.82 0.34" stroke="none" stroke-width="0" fill="#4dabf7" fill-rule="evenodd"></path><path d="M0 0 C32.53 2.37, 64.8 0.37, 114.73 0 M0 0 C27.78 -0.45, 57.5 -1.02, 114.73 0 M114.73 0 C113.72 -5.86, 113.49 -10.76, 114.73 -21.16 M114.73 0 C114 -7.28, 114.55 -15.6, 114.73 -21.16 M114.73 -21.16 C100.77 -24, 87.79 -28.11, 58.54 -39.8 M114.73 -21.16 C102.16 -23.85, 91.18 -29.52, 58.54 -39.8 M58.54 -39.8 C44.08 -36.63, 28.89 -29.24, 0.09 -22.37 M58.54 -39.8 C40.26 -33.03, 20.76 -28.38, 0.09 -22.37 M0.09 -22.37 C1.06 -14.24, 0.38 -6.08, 0 0 M0.09 -22.37 C0.56 -14.44, 0.76 -7.8, 0 0 M0 0 C0 0, 0 0, 0 0 M0 0 C0 0, 0 0, 0 0" stroke="#1e1e1e" stroke-width="4" fill="none"></path></g></g><mask></mask><g stroke-linecap="round"><g transform="translate(10.959838875604476 111.83965959144979) rotate(0 56.41001347263736 -11.320904661598007)" fill-rule="evenodd"><path d="M-1.21 0.44 L0.11 -21.69 L114.49 -22.3 L113.85 1.02 L0.72 0.33" stroke="none" stroke-width="0" fill="#69db7c" fill-rule="evenodd"></path><path d="M0 0 C1.88 -5.95, -0.48 -14.01, 0 -22.64 M0 0 C0.52 -6.14, -0.3 -10.14, 0 -22.64 M0 -22.64 C25.08 -22.99, 52.84 -23.81, 112.82 -22.64 M0 -22.64 C28.24 -21.18, 58.64 -22.16, 112.82 -22.64 M112.82 -22.64 C114.65 -13.89, 113.63 -9.57, 112.82 -0.19 M112.82 -22.64 C112.18 -16.5, 111.81 -12.73, 112.82 -0.19 M112.82 -0.19 C72.99 -1.9, 36.69 1.19, 1.88 -0.19 M112.82 -0.19 C88.09 -0.44, 63.13 -0.12, 1.88 -0.19 M1.88 -0.19 C1.26 -0.06, 0.77 -0.22, 0 0 M1.88 -0.19 C1.24 -0.08, 0.54 -0.04, 0 0" stroke="#1e1e1e" stroke-width="4" fill="none"></path></g></g><mask></mask></svg>